# xmcd CD database file
#
# Track frame offsets:
#	150
#	11595
#	23072
#	40070
#	58370
#	74630
#	83154
#	99930
#	108497
#	122865
#	136345
#	149892
#	159447
#	168232
#	174682
#	187652
#	198897
#	213577
#	222709
#	236382
#	252452
#	273402
#	281312
#	287840
#	305242
#	333990
#
# Disc length: 4795 seconds
#
# Revision: 0
# Processed by: cddbd v1.5.1PL0 Copyright (c) Steve Scherf et al.
# Submitted via: CDex 1.51
#
DISCID=9012b91a
DTITLE=Georg Riedels Orkester - Barn på Nytt
DYEAR=2003
DGENRE=Jazz
TTITLE0=intro: Magnus Lindgren: Du käre lile snickerbo
TTITLE1=Eva Dahlgreh - Linten visa om huruledes livet är kort liksom kärleken
TTITLE2=Robyn and Jojje Wadenius: Världens bästa Karlsson
TTITLE3=Lisa Nilsso: När mama var liten, då var hon så rar
TTITLE4=Plura: Du kära lile snickerbo
TTITLE5=Freddie Wadling: Pippis sommarsång
TTITLE6=Bo Kaspers Orkester: Fatig bonddräng
TTITLE7=Sara Isaksson and Anders Widmark Trio: Mors lilla lathund
TTITLE8=Mauro Scocco, Lisa Nilsson and Hot  club de Suède: Vem tror du att du är
TTITLE9=Plura: Sjörövar-Fabbe
TTITLE10=Totta: Oppochnervisan
TTITLE11=Lisa Nilsson: Idas sommarvisa
TTITLE12=Anders Widmark Trio: Här kommer Pippi Lånsgtrump
TTITLE13=Plura: En till som jag
TTITLE14=Eva Dahlgren &Staffan Sundström: Hujedamej sånt barn han var
TTITLE15=Lisa Nilsson: Lille katt
TTITLE16=Freddie Wadling: Vem är inte rädd ibland
TTITLE17=Georg Riedels orkester: Alla vi barn i Bullerbyn
TTITLE18=Eva Dahlgren: Varför och varför
TTITLE19=Lisa Nilsson: Bom sicka bom
TTITLE20=Totta: Kalle Teodor
TTITLE21=Stefan Sundström: Lira lara loppan
TTITLE22=Rebecca Törnqvist and Georg Riedel: Sov alla
TTITLE23=Lisa Nillson,Stefan Sundström, Plura, Freddie Wadling, EvaDahlgren, Mauro Scocco and Totta: Alla ska sova för nu är det natt
TTITLE24=Outro: AndersWidmark: Idas sommarvisa
TTITLE25=Data
EXTD=YEAR: 2003
EXTT0=
EXTT1=
EXTT2=
EXTT3=
EXTT4=
EXTT5=
EXTT6=
EXTT7=
EXTT8=
EXTT9=
EXTT10=
EXTT11=
EXTT12=
EXTT13=
EXTT14=
EXTT15=
EXTT16=
EXTT17=
EXTT18=
EXTT19=
EXTT20=
EXTT21=
EXTT22=
EXTT23=
EXTT24=
EXTT25=
PLAYORDER=
